<?xml version="1.0" encoding="UTF-8"?>
<svg version="1.1" xmlns="http://www.w3.org/2000/svg" width="487" height="34">
<path d="M0 0 C3.18827998 0.00564434 6.37655464 0.00846227 9.56483841 0.0110817 C39.18308823 0.04645472 68.6908029 0.29401639 98.2025032 3.06158829 C101.12868917 3.33453788 104.05582684 3.59503179 106.98326492 3.85419083 C143.41299551 7.11128906 179.52509377 11.93494712 215.51451492 18.44305801 C216.42432114 18.60714157 217.33412735 18.77122513 218.27150345 18.94028091 C227.44690912 20.60575325 236.58289342 22.38515618 245.66685867 24.49774551 C246.75276039 24.74888611 246.75276039 24.74888611 247.86059952 25.00510025 C252.8259893 26.19203239 252.8259893 26.19203239 253.95201492 27.31805801 C254.07701492 30.31805801 254.07701492 30.31805801 253.95201492 33.31805801 C252.95201492 34.31805801 252.95201492 34.31805801 249.3978157 34.47455215 C245.09999946 34.41686695 241.01187041 33.71705974 236.81920242 32.81415176 C235.2166718 32.48534454 233.61404674 32.15699739 232.01134109 31.82904434 C231.16945236 31.65418503 230.32756363 31.47932571 229.46016312 31.29916763 C165.59536052 18.11437192 100.36584563 11.38030328 35.20201492 9.75555801 C34.37830399 9.73471146 33.55459305 9.7138649 32.70592117 9.69238663 C19.11786471 9.35314321 5.54440962 9.11316753 -8.04798508 9.31805801 C-9.34881027 9.33594376 -10.64963547 9.3538295 -11.98987961 9.37225723 C-72.54335894 10.2723547 -133.12183557 15.39407781 -192.61048508 26.94305801 C-193.33408218 27.08313278 -194.05767929 27.22320755 -194.80320358 27.36752701 C-203.77800791 29.11922089 -212.61641654 31.16593487 -221.44227219 33.56171036 C-225.10099031 34.32917659 -228.32113013 34.52766608 -232.04798508 34.31805801 C-233.04798508 33.31805801 -233.04798508 33.31805801 -233.11048508 30.25555801 C-233.08986008 29.28618301 -233.06923508 28.31680801 -233.04798508 27.31805801 C-226.65566895 24.24233489 -220.06558662 22.66558702 -213.17298508 21.06805801 C-212.53261307 20.91943314 -211.89224106 20.77080826 -211.23246384 20.6176796 C-142.19289575 4.72405658 -70.66213726 -0.12709158 0 0 Z " fill="#4360F2" transform="translate(233.0479850769043,-0.3180580139160156)"/>
</svg>
