<?xml version="1.0" encoding="UTF-8"?>
<svg version="1.1" xmlns="http://www.w3.org/2000/svg" width="358" height="105">
<path d="M0 0 C3.63 0 7.26 0 11 0 C11 18.15 11 36.3 11 55 C7.37 55 3.74 55 0 55 C-0.33 54.34 -0.66 53.68 -1 53 C-1.763125 53.495 -2.52625 53.99 -3.3125 54.5 C-8.30377735 56.53035011 -12.67697391 56.71396773 -18 56 C-23.3473964 53.3749145 -26.69731463 49.73563929 -29.25 44.375 C-30.94799464 36.73402411 -30.92107235 28.94093049 -27 22 C-23.48243795 17.47742022 -19.55698106 15.14830605 -14 14 C-8.73351354 13.84453176 -5.60297315 15.23821611 -1 18 C-0.67 12.06 -0.34 6.12 0 0 Z M-17.15234375 29.0859375 C-18.75576367 32.70656312 -18.78607899 36.15458656 -18 40 C-16.20606332 42.87029869 -15.01736724 44.49131638 -12 46 C-8.0506489 46.37258029 -5.75134169 46.45036882 -2.30859375 44.38671875 C0.66327784 41.31427621 0.67337796 39.718558 0.625 35.5 C0.63789063 34.3759375 0.65078125 33.251875 0.6640625 32.09375 C0.25141895 28.84251063 0.25141895 28.84251063 -2.2890625 26.6328125 C-5.5397729 24.67489182 -7.35448045 24.27838806 -11.0625 24.49609375 C-13.84542035 25.21987747 -15.52283748 26.75491497 -17.15234375 29.0859375 Z " fill="#2F80EA" transform="translate(234,2)"/>
<path d="M0 0 C6.09504005 6.25977086 6 11.24629342 6 20 C-3.24 20.33 -12.48 20.66 -22 21 C-20.4379777 24.85116711 -20.4379777 24.85116711 -18.375 26.25 C-11.82867936 28.31725915 -6.89083828 26.94541914 -1 24 C3 29.625 3 29.625 3 33 C-4.40931232 37.39070359 -11.51238852 37.98972148 -20 37 C-26.23556006 35.2033132 -29.86853723 31.77958268 -33.05078125 26.13671875 C-35.43624329 20.76697498 -35.54744426 14.83426303 -33.875 9.25 C-31.76505007 3.84623683 -29.05084262 0.23905075 -24 -2.8125 C-15.33518516 -6.24232254 -7.6037648 -5.36736339 0 0 Z M-22 9 C-22.33 9.99 -22.66 10.98 -23 12 C-17.06 12 -11.12 12 -5 12 C-6.47639003 6.93991361 -6.47639003 6.93991361 -10 5 C-17.0451088 4.3162414 -17.0451088 4.3162414 -22 9 Z " fill="#3282EA" transform="translate(194,21)"/>
<path d="M0 0 C3.09814826 4.12548962 3.35594468 7.16848067 3.29296875 12.26953125 C3.28872391 12.95053391 3.28447906 13.63153656 3.28010559 14.33317566 C3.2634061 16.49336459 3.22577312 18.65259642 3.1875 20.8125 C3.17244174 22.28318958 3.15875534 23.75389389 3.14648438 25.22460938 C3.11353214 28.81671357 3.06181173 32.40826326 3 36 C-1.66666667 36 -6.33333333 36 -11 36 C-12.485 36.495 -12.485 36.495 -14 37 C-19.29487804 37.50704484 -23.65500981 37.64847741 -28.5 35.3125 C-32.4538884 31.65515323 -33.83500655 29.48494101 -34.4375 24.0625 C-34.25126393 19.77097319 -32.86985359 17.2474659 -30 14 C-25.223434 10.6675121 -20.64638843 10.23803063 -15 11 C-12.48669627 11.80094295 -10.36183382 12.7939572 -8 14 C-8.59861742 11.64828869 -9.26924352 9.3140622 -10 7 C-13.18764709 5.40617646 -16.53037534 5.60587131 -20 6 C-22.02237052 6.95394836 -24.0282696 7.94535351 -26 9 C-29.75376152 7.74874616 -30.24073289 6.4347596 -32 3 C-32 2.34 -32 1.68 -32 1 C-21.68604854 -4.52387519 -9.94876414 -8.73550022 0 0 Z M-20.9375 20.1875 C-22.37794659 22.64473241 -22.4305182 24.20163168 -22 27 C-19.00261059 28.99825961 -18.36652492 29.27550398 -15 29.25 C-14.319375 29.25515625 -13.63875 29.2603125 -12.9375 29.265625 C-10.67583993 29.09917603 -10.67583993 29.09917603 -8 27 C-7.41649495 24.54290625 -7.41649495 24.54290625 -8 22 C-10.39081611 19.22665331 -11.899597 19.01056874 -15.5625 18.625 C-18.88514167 18.73991302 -18.88514167 18.73991302 -20.9375 20.1875 Z " fill="#3081EA" transform="translate(306,21)"/>
<path d="M0 0 C3.09814826 4.12548962 3.35594468 7.16848067 3.29296875 12.26953125 C3.28872391 12.95053391 3.28447906 13.63153656 3.28010559 14.33317566 C3.2634061 16.49336459 3.22577312 18.65259642 3.1875 20.8125 C3.17244174 22.28318958 3.15875534 23.75389389 3.14648438 25.22460938 C3.11353214 28.81671357 3.06181173 32.40826326 3 36 C-1.66666667 36 -6.33333333 36 -11 36 C-12.485 36.495 -12.485 36.495 -14 37 C-19.29487804 37.50704484 -23.65500981 37.64847741 -28.5 35.3125 C-32.4538884 31.65515323 -33.83500655 29.48494101 -34.4375 24.0625 C-34.25126393 19.77097319 -32.86985359 17.2474659 -30 14 C-25.223434 10.6675121 -20.64638843 10.23803063 -15 11 C-12.48669627 11.80094295 -10.36183382 12.7939572 -8 14 C-8.59861742 11.64828869 -9.26924352 9.3140622 -10 7 C-13.18764709 5.40617646 -16.53037534 5.60587131 -20 6 C-22.02237052 6.95394836 -24.0282696 7.94535351 -26 9 C-29.75376152 7.74874616 -30.24073289 6.4347596 -32 3 C-32 2.34 -32 1.68 -32 1 C-21.68604854 -4.52387519 -9.94876414 -8.73550022 0 0 Z M-20.9375 20.1875 C-22.37794659 22.64473241 -22.4305182 24.20163168 -22 27 C-19.00261059 28.99825961 -18.36652492 29.27550398 -15 29.25 C-14.319375 29.25515625 -13.63875 29.2603125 -12.9375 29.265625 C-10.67583993 29.09917603 -10.67583993 29.09917603 -8 27 C-7.41649495 24.54290625 -7.41649495 24.54290625 -8 22 C-10.39081611 19.22665331 -11.899597 19.01056874 -15.5625 18.625 C-18.88514167 18.73991302 -18.88514167 18.73991302 -20.9375 20.1875 Z " fill="#3081EA" transform="translate(39,21)"/>
<path d="M0 0 C2.77270108 2.20684371 4.42745556 3.85491112 6 7 C6.08649451 9.48099734 6.11565054 11.93344928 6.09765625 14.4140625 C6.0962413 15.14370209 6.09482635 15.87334167 6.09336853 16.62509155 C6.08776531 18.95843585 6.07521235 21.29168464 6.0625 23.625 C6.05748541 25.20572778 6.05292243 26.78645707 6.04882812 28.3671875 C6.03779484 32.24482854 6.02052811 36.12239807 6 40 C2.37 40 -1.26 40 -5 40 C-5.01981934 39.19256348 -5.03963867 38.38512695 -5.06005859 37.55322266 C-5.15505899 33.91014125 -5.26483912 30.26765314 -5.375 26.625 C-5.4059375 25.35398437 -5.436875 24.08296875 -5.46875 22.7734375 C-5.50742187 21.56171875 -5.54609375 20.35 -5.5859375 19.1015625 C-5.6173584 17.98088379 -5.6487793 16.86020508 -5.68115234 15.70556641 C-5.73411203 12.85289588 -5.73411203 12.85289588 -8 11 C-13.88336903 10.49033587 -13.88336903 10.49033587 -19 13 C-19.51104922 15.80810144 -19.51104922 15.80810144 -19.51171875 19.1015625 C-19.54716797 20.31328125 -19.58261719 21.525 -19.61914062 22.7734375 C-19.65297852 24.67996094 -19.65297852 24.67996094 -19.6875 26.625 C-19.72166016 27.90375 -19.75582031 29.1825 -19.79101562 30.5 C-19.87372479 33.66657932 -19.94280085 36.83287364 -20 40 C-23.63 40 -27.26 40 -31 40 C-31 26.8 -31 13.6 -31 0 C-27.37 0 -23.74 0 -20 0 C-19.67 0.99 -19.34 1.98 -19 3 C-18.46632813 2.69964844 -17.93265625 2.39929688 -17.3828125 2.08984375 C-11.43542176 -0.94558924 -6.50410953 -1.99777186 0 0 Z " fill="#2C7EE9" transform="translate(350,17)"/>
<path d="M0 0 C2.5 2.1875 2.5 2.1875 4.5 6.1875 C1.035 9.1575 1.035 9.1575 -2.5 12.1875 C-2.995 11.6925 -3.49 11.1975 -4 10.6875 C-7.46900179 8.60609893 -10.61142289 8.39438427 -14.5 9.1875 C-17.63836313 11.21435952 -19.15870267 12.64047192 -19.9765625 16.34765625 C-20.24519692 20.58218302 -19.84576589 22.67409004 -17.4375 26.25 C-13.7676953 28.67050948 -11.82043918 28.81592752 -7.5 28.1875 C-5.09916562 26.82864884 -5.09916562 26.82864884 -3.5 25.1875 C-0.13408134 26.63003657 2.01047079 28.52014727 4.5 31.1875 C3.10415208 34.56079915 1.57634389 36.22982662 -1.5 38.1875 C-7.84377263 40.30209088 -15.86151571 40.39113234 -22 37.5625 C-26.64576446 34.7789618 -29.51011446 31.3086833 -31.8125 26.375 C-33.31914951 19.38962501 -33.30033835 12.44089956 -29.5 6.1875 C-25.6750064 1.72061092 -21.51679323 -1.62300907 -15.640625 -2.6640625 C-9.8959362 -3.06241683 -5.15113479 -2.66755194 0 0 Z " fill="#3483EA" transform="translate(81.5,18.8125)"/>
<path d="M0 0 C0.66 1.32 1.32 2.64 2 4 C-0.64 5.98 -3.28 7.96 -6 10 C-7.32 9.01 -8.64 8.02 -10 7 C-13.89082749 6.15648076 -17.04343227 6.41134293 -20.4375 8.5 C-23.31102378 13.09763804 -23.36672074 17.3191966 -22.25 22.4375 C-21.8375 23.283125 -21.425 24.12875 -21 25 C-17.29661796 26.23446068 -13.85339582 26.44981274 -10 26 C-7.0745356 24.6490712 -7.0745356 24.6490712 -5 23 C-2.69 24.98 -0.38 26.96 2 29 C0.11869958 32.76260084 -0.95394001 34.29336173 -4.60546875 36.23828125 C-10.84702736 38.2237689 -18.25153019 38.16382573 -24.265625 35.6171875 C-29.46566038 32.541738 -33.05320846 28.73791189 -35 23 C-35.71312131 16.33840341 -35.98425671 9.6303618 -32.46484375 3.71875 C-28.85542092 -0.51630612 -24.27599072 -3.2887529 -19 -4.9375 C-11.58599716 -5.09195839 -6.13288549 -4.38063249 0 0 Z " fill="#3382EA" transform="translate(125,21)"/>
<path d="M0 0 C0 3.63 0 7.26 0 11 C-2.57161458 11.74869792 -5.14322917 12.49739583 -7.71484375 13.24609375 C-9.9402493 13.79026051 -9.9402493 13.79026051 -11 15 C-11.15806531 16.92478813 -11.251135 18.8549921 -11.31640625 20.78515625 C-11.35830078 21.95498047 -11.40019531 23.12480469 -11.44335938 24.33007812 C-11.48267578 25.56177734 -11.52199219 26.79347656 -11.5625 28.0625 C-11.60568359 29.29806641 -11.64886719 30.53363281 -11.69335938 31.80664062 C-11.79984198 34.87097335 -11.90185424 37.93539073 -12 41 C-15.63 41 -19.26 41 -23 41 C-23 27.8 -23 14.6 -23 1 C-19.37 1 -15.74 1 -12 1 C-11.67 1.99 -11.34 2.98 -11 4 C-9.9171875 3.2884375 -9.9171875 3.2884375 -8.8125 2.5625 C-5.93047162 0.96137312 -3.33276483 0 0 0 Z " fill="#2C7EE9" transform="translate(156,16)"/>
<path d="M0 0 C3.63 0 7.26 0 11 0 C11 13.2 11 26.4 11 40 C7.37 40 3.74 40 0 40 C0 26.8 0 13.6 0 0 Z " fill="#2C7EE9" transform="translate(254,17)"/>
<path d="M0 0 C1.67225729 -0.30404678 3.34080104 -0.63128912 5 -1 C5.66 -0.67 6.32 -0.34 7 0 C7 4.29 7 8.58 7 13 C6.01 13 5.02 13 4 13 C4 9.37 4 5.74 4 2 C2.68 2.33 1.36 2.66 0 3 C0 6.3 0 9.6 0 13 C-0.99 13 -1.98 13 -3 13 C-3.33 9.7 -3.66 6.4 -4 3 C-4.99 3.33 -5.98 3.66 -7 4 C-7.33 6.97 -7.66 9.94 -8 13 C-8.99 13 -9.98 13 -11 13 C-11 8.71 -11 4.42 -11 0 C-6.37637095 -0.92472581 -4.43030827 -0.73838471 0 0 Z " fill="#647483" transform="translate(269,77)"/>
<path d="M0 0 C2.31282587 3.46923881 2.42478586 4.92205575 2 9 C0.56222319 11.08477638 -0.59798239 11.81239178 -2.875 12.875 C-6.15180683 13.06775334 -7.54192402 12.12590355 -10 10 C-11.62874251 4.2994012 -11.62874251 4.2994012 -10.0625 1.0625 C-6.61704524 -0.71243124 -3.84657396 -0.36634038 0 0 Z " fill="#3986EB" transform="translate(264,0)"/>
<path d="M0 0 C0.99 0 1.98 0 3 0 C3 5.94 3 11.88 3 18 C-5.22787194 19.4519774 -5.22787194 19.4519774 -8.5625 17.5 C-10.49934082 14.13158117 -10.41740213 11.82618618 -10 8 C-8 5 -8 5 -5.5 4.25 C-3 4 -3 4 -1 5 C-0.67 3.35 -0.34 1.7 0 0 Z M-5 7 C-7.2491908 8.82703227 -7.2491908 8.82703227 -7.25 11.5 C-7.2491908 14.17296773 -7.2491908 14.17296773 -5 16 C-2.21762345 15.59471099 -2.21762345 15.59471099 0 14 C0.2500773 11.54190002 0.2500773 11.54190002 0 9 C-0.66 8.34 -1.32 7.68 -2 7 C-2.99 7 -3.98 7 -5 7 Z " fill="#7E8C98" transform="translate(74,72)"/>
<path d="M0 0 C2.27863153 2.88626661 3 4.3047018 3 8 C-0.3 8 -3.6 8 -7 8 C-7 8.66 -7 9.32 -7 10 C-4.03 10 -1.06 10 2 10 C1.67 10.99 1.34 11.98 1 13 C-5.2703533 14.32642089 -5.2703533 14.32642089 -8.375 12.9375 C-10.61574088 10.26584741 -10.93058104 8.47094801 -11 5 C-8.32405547 -0.73416686 -6.11089999 -1.74597142 0 0 Z M-7 3 C-7 3.66 -7 4.32 -7 5 C-5.02 5 -3.04 5 -1 5 C-1.33 4.01 -1.66 3.02 -2 2 C-4.9254644 1.7763932 -4.9254644 1.7763932 -7 3 Z " fill="#6A7987" transform="translate(332,77)"/>
<path d="M0 0 C2.27863153 2.88626661 3 4.3047018 3 8 C-0.3 8 -3.6 8 -7 8 C-7 8.66 -7 9.32 -7 10 C-4.03 10 -1.06 10 2 10 C1.67 10.99 1.34 11.98 1 13 C-5.2703533 14.32642089 -5.2703533 14.32642089 -8.375 12.9375 C-10.61574088 10.26584741 -10.93058104 8.47094801 -11 5 C-8.32405547 -0.73416686 -6.11089999 -1.74597142 0 0 Z M-7 3 C-7 3.66 -7 4.32 -7 5 C-5.02 5 -3.04 5 -1 5 C-1.33 4.01 -1.66 3.02 -2 2 C-4.9254644 1.7763932 -4.9254644 1.7763932 -7 3 Z " fill="#6A7987" transform="translate(93,77)"/>
<path d="M0 0 C1.8125 1.25 1.8125 1.25 3 3 C3.1875 5.6875 3.1875 5.6875 3 8 C-1.455 8.495 -1.455 8.495 -6 9 C-3.23735711 9.59732819 -0.83967231 10 2 10 C1.67 10.99 1.34 11.98 1 13 C-4.37154989 14.22080679 -4.37154989 14.22080679 -7.3125 13.1875 C-9 12 -9 12 -10 10 C-10.46315789 3.63157895 -10.46315789 3.63157895 -8.625 1.125 C-5.35357067 -1.13983569 -3.82264285 -1.1188223 0 0 Z M-5 2 C-5.99 3.485 -5.99 3.485 -7 5 C-4.69 5 -2.38 5 0 5 C-0.66 4.01 -1.32 3.02 -2 2 C-2.99 2 -3.98 2 -5 2 Z " fill="#4D5F70" transform="translate(56,77)"/>
<path d="M0 0 C2.20914 3.31371 2.22481553 4.3446021 2.125 8.1875 C2.10695313 9.08855469 2.08890625 9.98960938 2.0703125 10.91796875 C2.03550781 11.94857422 2.03550781 11.94857422 2 13 C0.56589632 13.24954005 -0.87260072 13.47392642 -2.3125 13.6875 C-3.11300781 13.81511719 -3.91351563 13.94273438 -4.73828125 14.07421875 C-7 14 -7 14 -8.8125 12.71875 C-10 11 -10 11 -9.6875 7.8125 C-9.460625 6.884375 -9.23375 5.95625 -9 5 C-5.535 4.505 -5.535 4.505 -2 4 C-5.01031744 3.06576355 -5.86650268 2.95550089 -9 4 C-8.6875 2.0625 -8.6875 2.0625 -8 0 C-4.67212881 -1.1092904 -3.3006216 -1.01557588 0 0 Z M-6 7 C-6 8.32 -6 9.64 -6 11 C-4.35 10.67 -2.7 10.34 -1 10 C-1.33 9.01 -1.66 8.02 -2 7 C-3.32 7 -4.64 7 -6 7 Z " fill="#617180" transform="translate(292,77)"/>
<path d="M0 0 C1 1 1 1 1.09765625 3.72265625 C1.08605469 4.82480469 1.07445312 5.92695312 1.0625 7.0625 C1.05347656 8.16722656 1.04445312 9.27195312 1.03515625 10.41015625 C1.02355469 11.26480469 1.01195312 12.11945313 1 13 C-0.45635371 13.22174933 -1.91522956 13.42698698 -3.375 13.625 C-4.18710938 13.74101563 -4.99921875 13.85703125 -5.8359375 13.9765625 C-6.55007812 13.98429687 -7.26421875 13.99203125 -8 14 C-10 12 -10 12 -10.3125 9 C-10.209375 8.01 -10.10625 7.02 -10 6 C-7 4 -7 4 -4.3125 4.375 C-3.549375 4.58125 -2.78625 4.7875 -2 5 C-2.33 4.34 -2.66 3.68 -3 3 C-4.98 3.33 -6.96 3.66 -9 4 C-9 2.68 -9 1.36 -9 0 C-5.50340123 -1.16553292 -3.55568859 -0.77297578 0 0 Z M-7 7 C-7 8.32 -7 9.64 -7 11 C-5.35 10.67 -3.7 10.34 -2 10 C-2.33 9.01 -2.66 8.02 -3 7 C-4.32 7 -5.64 7 -7 7 Z " fill="#83909B" transform="translate(149,77)"/>
<path d="M0 0 C1.32229189 2.64458379 1.09677194 4.67761301 1.0625 7.625 C1.05347656 8.62789062 1.04445312 9.63078125 1.03515625 10.6640625 C1.02355469 11.43492188 1.01195312 12.20578125 1 13 C-2.01045446 13.58063273 -4.92868458 14.03255811 -8 14 C-10.1875 12.375 -10.1875 12.375 -11 10 C-10.4375 7.3125 -10.4375 7.3125 -9 5 C-6.07083439 3.67715102 -5.12177395 3.95940868 -2 5 C-2.33 4.34 -2.66 3.68 -3 3 C-4.98 3.33 -6.96 3.66 -9 4 C-9 2.68 -9 1.36 -9 0 C-5.49270578 -1.16909807 -3.55692677 -0.85056945 0 0 Z M-7 7 C-7 8.32 -7 9.64 -7 11 C-5.35 10.67 -3.7 10.34 -2 10 C-2.33 9.01 -2.66 8.02 -3 7 C-4.32 7 -5.64 7 -7 7 Z " fill="#6E7D8B" transform="translate(230,77)"/>
<path d="M0 0 C0.99 0 1.98 0 3 0 C3 1.65 3 3.3 3 5 C3.763125 4.814375 4.52625 4.62875 5.3125 4.4375 C8 4 8 4 11 5 C12.00496852 8.01490557 12.10335303 10.04181692 12.0625 13.1875 C12.05347656 14.08855469 12.04445312 14.98960938 12.03515625 15.91796875 C12.02355469 16.60503906 12.01195312 17.29210937 12 18 C11.01 18 10.02 18 9 18 C8.67 14.37 8.34 10.74 8 7 C6.02 7.99 6.02 7.99 4 9 C3.3006486 11.18541552 3.3006486 11.18541552 3.25 13.625 C3.19328125 14.44226563 3.1365625 15.25953125 3.078125 16.1015625 C3.05234375 16.72804688 3.0265625 17.35453125 3 18 C2.01 18 1.02 18 0 18 C0 12.06 0 6.12 0 0 Z " fill="#768492" transform="translate(202,72)"/>
<path d="M0 0 C0 1.32 0 2.64 0 4 C-1.98 3.34 -3.96 2.68 -6 2 C-5.15773072 4.26014889 -5.15773072 4.26014889 -2.5625 4.875 C0 6 0 6 1.3125 8.125 C1.6528125 9.053125 1.6528125 9.053125 2 10 C1.01 11.32 0.02 12.64 -1 14 C-7.15234375 13.4140625 -7.15234375 13.4140625 -9 13 C-9.33 12.34 -9.66 11.68 -10 11 C-9.34 10.34 -8.68 9.68 -8 9 C-4.875 9.375 -4.875 9.375 -2 10 C-2.8971875 9.566875 -2.8971875 9.566875 -3.8125 9.125 C-6 8 -6 8 -9 6 C-9.1875 3.375 -9.1875 3.375 -9 1 C-5.64919071 -1.10976881 -3.77897651 -1.0497157 0 0 Z " fill="#707F8D" transform="translate(174,77)"/>
<path d="M0 0 C1.32229189 2.64458379 1.09677194 4.67761301 1.0625 7.625 C1.05347656 8.62789062 1.04445313 9.63078125 1.03515625 10.6640625 C1.02355469 11.43492188 1.01195313 12.20578125 1 13 C0.01 13 -0.98 13 -2 13 C-2.33 9.7 -2.66 6.4 -3 3 C-4.32 3.33 -5.64 3.66 -7 4 C-7.33 6.97 -7.66 9.94 -8 13 C-8.99 13 -9.98 13 -11 13 C-11 8.71 -11 4.42 -11 0 C-3.81188119 -1.1980198 -3.81188119 -1.1980198 0 0 Z " fill="#6A7A88" transform="translate(112,77)"/>
<path d="M0 0 C0.66 0.99 1.32 1.98 2 3 C0.68 3 -0.64 3 -2 3 C-3.34164079 3.2981424 -4.67851173 3.62243192 -6 4 C-6 5.65 -6 7.3 -6 9 C-3.50935112 9.68707555 -1.62113708 10 1 10 C1.33 10.66 1.66 11.32 2 12 C-1 14 -1 14 -4.5625 13.75 C-8 13 -8 13 -10 11 C-10.57105775 3.80467229 -10.57105775 3.80467229 -8.625 1.0625 C-5.33137172 -1.09102618 -3.79738837 -1.13921651 0 0 Z " fill="#808D99" transform="translate(28,77)"/>
<path d="M0 0 C0.99 0 1.98 0 3 0 C3 1.32 3 2.64 3 4 C3.99 4 4.98 4 6 4 C6 4.66 6 5.32 6 6 C5.01 6 4.02 6 3 6 C3.23004734 11.3907997 3.23004734 11.3907997 5.5625 16 C6.036875 16.33 6.51125 16.66 7 17 C5.35 17.33 3.7 17.66 2 18 C-0.13586678 14.79619983 -0.23132175 13.98060033 -0.125 10.3125 C-0.10695313 9.50425781 -0.08890625 8.69601563 -0.0703125 7.86328125 C-0.04710937 7.24839844 -0.02390625 6.63351563 0 6 C-0.66 6 -1.32 6 -2 6 C-2 5.34 -2 4.68 -2 4 C-1.34 4 -0.68 4 0 4 C0 2.68 0 1.36 0 0 Z " fill="#6D7C8A" transform="translate(311,73)"/>
<path d="M0 0 C0.99 0 1.98 0 3 0 C3 1.32 3 2.64 3 4 C3.99 4 4.98 4 6 4 C6 4.66 6 5.32 6 6 C5.01 6 4.02 6 3 6 C3.23004734 11.3907997 3.23004734 11.3907997 5.5625 16 C6.036875 16.33 6.51125 16.66 7 17 C5.35 17.33 3.7 17.66 2 18 C-0.13586678 14.79619983 -0.23132175 13.98060033 -0.125 10.3125 C-0.10695313 9.50425781 -0.08890625 8.69601563 -0.0703125 7.86328125 C-0.04710937 7.24839844 -0.02390625 6.63351563 0 6 C-0.66 6 -1.32 6 -2 6 C-2 5.34 -2 4.68 -2 4 C-1.34 4 -0.68 4 0 4 C0 2.68 0 1.36 0 0 Z " fill="#6D7C8A" transform="translate(300,73)"/>
<path d="M0 0 C0.99 0 1.98 0 3 0 C3 1.32 3 2.64 3 4 C3.99 4 4.98 4 6 4 C6 4.66 6 5.32 6 6 C5.01 6 4.02 6 3 6 C3.23004734 11.3907997 3.23004734 11.3907997 5.5625 16 C6.036875 16.33 6.51125 16.66 7 17 C5.35 17.33 3.7 17.66 2 18 C-0.13586678 14.79619983 -0.23132175 13.98060033 -0.125 10.3125 C-0.10695312 9.50425781 -0.08890625 8.69601563 -0.0703125 7.86328125 C-0.04710937 7.24839844 -0.02390625 6.63351563 0 6 C-0.66 6 -1.32 6 -2 6 C-2 5.34 -2 4.68 -2 4 C-1.34 4 -0.68 4 0 4 C0 2.68 0 1.36 0 0 Z " fill="#6D7C8A" transform="translate(237,73)"/>
<path d="M0 0 C0.99 0 1.98 0 3 0 C3 1.32 3 2.64 3 4 C3.99 4 4.98 4 6 4 C6 4.66 6 5.32 6 6 C5.01 6 4.02 6 3 6 C3.23004734 11.3907997 3.23004734 11.3907997 5.5625 16 C6.036875 16.33 6.51125 16.66 7 17 C5.35 17.33 3.7 17.66 2 18 C-0.13586678 14.79619983 -0.23132175 13.98060033 -0.125 10.3125 C-0.10695312 9.50425781 -0.08890625 8.69601563 -0.0703125 7.86328125 C-0.04710937 7.24839844 -0.02390625 6.63351563 0 6 C-0.66 6 -1.32 6 -2 6 C-2 5.34 -2 4.68 -2 4 C-1.34 4 -0.68 4 0 4 C0 2.68 0 1.36 0 0 Z " fill="#6D7C8A" transform="translate(191,73)"/>
<path d="M0 0 C0.99 0 1.98 0 3 0 C3 1.32 3 2.64 3 4 C3.99 4 4.98 4 6 4 C6 4.66 6 5.32 6 6 C5.01 6 4.02 6 3 6 C3.23004734 11.3907997 3.23004734 11.3907997 5.5625 16 C6.036875 16.33 6.51125 16.66 7 17 C5.35 17.33 3.7 17.66 2 18 C-0.13586678 14.79619983 -0.23132175 13.98060033 -0.125 10.3125 C-0.10695313 9.50425781 -0.08890625 8.69601563 -0.0703125 7.86328125 C-0.04710938 7.24839844 -0.02390625 6.63351563 0 6 C-0.66 6 -1.32 6 -2 6 C-2 5.34 -2 4.68 -2 4 C-1.34 4 -0.68 4 0 4 C0 2.68 0 1.36 0 0 Z " fill="#6D7C8A" transform="translate(119,73)"/>
<path d="M0 0 C-0.33 0.66 -0.66 1.32 -1 2 C-3.0625 2.625 -3.0625 2.625 -5 3 C-5 3.66 -5 4.32 -5 5 C-3.68 5 -2.36 5 -1 5 C-0.34 4.34 0.32 3.68 1 3 C1 4.65 1 6.3 1 8 C-5.38707103 9.32561852 -5.38707103 9.32561852 -8 7.9375 C-9.47177143 5.08594286 -8.74138999 3.03295907 -8 0 C-4.71023192 -1.09658936 -3.28696233 -0.79953138 0 0 Z " fill="#788692" transform="translate(291,82)"/>
<path d="M0 0 C0.66 1.32 1.32 2.64 2 4 C5.3 4 8.6 4 12 4 C12.33 2.68 12.66 1.36 13 0 C13 1.65 13 3.3 13 5 C8.545 5.495 8.545 5.495 4 6 C6.76264289 6.59732819 9.16032769 7 12 7 C11.67 7.99 11.34 8.98 11 10 C5.62845011 11.22080679 5.62845011 11.22080679 2.6875 10.1875 C1 9 1 9 0 7 C-0.04022391 4.6670134 -0.04320247 2.33293334 0 0 Z " fill="#8F9AA5" transform="translate(46,80)"/>
<path d="M0 0 C0.33 0 0.66 0 1 0 C1 5.61 1 11.22 1 17 C-7 18 -7 18 -9 16.5625 C-9.33 16.046875 -9.66 15.53125 -10 15 C-9.34 15 -8.68 15 -8 15 C-7.67 14.34 -7.34 13.68 -7 13 C-6.360625 13.185625 -5.72125 13.37125 -5.0625 13.5625 C-4.0415625 13.7790625 -4.0415625 13.7790625 -3 14 C-1.11525997 12.11525997 -1.30668 8.97253598 -0.9375 6.4375 C-0.76089844 5.23996094 -0.58429688 4.04242188 -0.40234375 2.80859375 C-0.26957031 1.88175781 -0.13679688 0.95492187 0 0 Z " fill="#5A6B7B" transform="translate(75,73)"/>
<path d="M0 0 C0 0.99 0 1.98 0 3 C-0.64453125 3.23460938 -1.2890625 3.46921875 -1.953125 3.7109375 C-4.2077908 4.81161073 -4.2077908 4.81161073 -4.609375 7.1640625 C-4.65578125 7.97617188 -4.7021875 8.78828125 -4.75 9.625 C-4.80671875 10.44226563 -4.8634375 11.25953125 -4.921875 12.1015625 C-4.94765625 12.72804688 -4.9734375 13.35453125 -5 14 C-5.99 14 -6.98 14 -8 14 C-8 9.71 -8 5.42 -8 1 C-2 0 -2 0 0 0 Z " fill="#72828E" transform="translate(42,76)"/>
<path d="M0 0 C0.99 0 1.98 0 3 0 C3 5.94 3 11.88 3 18 C2.01 18 1.02 18 0 18 C0 12.06 0 6.12 0 0 Z " fill="#6A7988" transform="translate(156,72)"/>
<path d="M0 0 C0.33 0.99 0.66 1.98 1 3 C0.01 3.66 -0.98 4.32 -2 5 C-2.57993699 7.19454681 -2.57993699 7.19454681 -2.6875 9.625 C-2.78611328 10.85089844 -2.78611328 10.85089844 -2.88671875 12.1015625 C-2.94279297 13.04128906 -2.94279297 13.04128906 -3 14 C-3.99 14 -4.98 14 -6 14 C-6 9.71 -6 5.42 -6 1 C-4.02 0.67 -2.04 0.34 0 0 Z " fill="#6E7D8B" transform="translate(346,76)"/>
<path d="M0 0 C2.67927341 4.01891012 2.15601248 6.24161923 2 11 C0.52168779 11.19412181 -0.95769316 11.38012131 -2.4375 11.5625 C-3.26121094 11.66691406 -4.08492187 11.77132812 -4.93359375 11.87890625 C-5.61550781 11.91886719 -6.29742187 11.95882812 -7 12 C-8 11 -8 11 -8.0625 7.9375 C-8.041875 6.968125 -8.02125 5.99875 -8 5 C-7.67 6.32 -7.34 7.64 -7 9 C-5.35 8.67 -3.7 8.34 -2 8 C-2 6.68 -2 5.36 -2 4 C-1.34 4 -0.68 4 0 4 C0 2.68 0 1.36 0 0 Z " fill="#617180" transform="translate(148,79)"/>
<path d="M0 0 C0.99 0 1.98 0 3 0 C3 4.29 3 8.58 3 13 C2.01 13 1.02 13 0 13 C0 8.71 0 4.42 0 0 Z " fill="#697987" transform="translate(130,77)"/>
<path d="M0 0 C0.66 0 1.32 0 2 0 C3.03863773 6.23182639 2.83288874 11.74692761 2 18 C1.34 18 0.68 18 0 18 C0 12.06 0 6.12 0 0 Z " fill="#536576" transform="translate(202,72)"/>
<path d="M0 0 C0.99 0.33 1.98 0.66 3 1 C3 4.63 3 8.26 3 12 C2.01 12 1.02 12 0 12 C0 8.04 0 4.08 0 0 Z " fill="#607180" transform="translate(273,78)"/>
<path d="M0 0 C1.1446875 0.2475 1.1446875 0.2475 2.3125 0.5 C5.03596236 1.09145396 5.03596236 1.09145396 8 1 C8.33 1.66 8.66 2.32 9 3 C6 5 6 5 2.375 4.75 C0.704375 4.37875 0.704375 4.37875 -1 4 C-1.33 3.34 -1.66 2.68 -2 2 C-1.34 2 -0.68 2 0 2 C0 1.34 0 0.68 0 0 Z " fill="#88949F" transform="translate(21,86)"/>
<path d="M0 0 C0.86625 0.3403125 0.86625 0.3403125 1.75 0.6875 C0.375 2.1875 0.375 2.1875 -1.25 3.6875 C-1.91 3.6875 -2.57 3.6875 -3.25 3.6875 C-3.25 4.3475 -3.25 5.0075 -3.25 5.6875 C-1.27 5.6875 0.71 5.6875 2.75 5.6875 C3.08 5.0275 3.41 4.3675 3.75 3.6875 C3.75 4.6775 3.75 5.6675 3.75 6.6875 C1.11 6.6875 -1.53 6.6875 -4.25 6.6875 C-4.91 5.3675 -5.57 4.0475 -6.25 2.6875 C-2.80384615 -0.38942308 -2.80384615 -0.38942308 0 0 Z " fill="#AAB3BB" transform="translate(328.25,76.3125)"/>
<path d="M0 0 C0.86625 0.3403125 0.86625 0.3403125 1.75 0.6875 C0.375 2.1875 0.375 2.1875 -1.25 3.6875 C-1.91 3.6875 -2.57 3.6875 -3.25 3.6875 C-3.25 4.3475 -3.25 5.0075 -3.25 5.6875 C-1.27 5.6875 0.71 5.6875 2.75 5.6875 C3.08 5.0275 3.41 4.3675 3.75 3.6875 C3.75 4.6775 3.75 5.6675 3.75 6.6875 C1.11 6.6875 -1.53 6.6875 -4.25 6.6875 C-4.91 5.3675 -5.57 4.0475 -6.25 2.6875 C-2.80384615 -0.38942308 -2.80384615 -0.38942308 0 0 Z " fill="#AAB3BB" transform="translate(89.25,76.3125)"/>
<path d="M0 0 C2.97 0.33 5.94 0.66 9 1 C8.67 2.32 8.34 3.64 8 5 C1.84765625 4.4140625 1.84765625 4.4140625 0 4 C-0.33 3.34 -0.66 2.68 -1 2 C-0.67 1.34 -0.34 0.68 0 0 Z " fill="#84919C" transform="translate(165,86)"/>
<path d="M0 0 C0.66 0.33 1.32 0.66 2 1 C1.67 1.66 1.34 2.32 1 3 C0.01 3 -0.98 3 -2 3 C-2.845625 3.185625 -3.69125 3.37125 -4.5625 3.5625 C-7 4 -7 4 -9 3 C-9 2.34 -9 1.68 -9 1 C-5.64406166 -1.11299821 -3.77811119 -1.09366377 0 0 Z " fill="#8894A0" transform="translate(56,77)"/>
<path d="M0 0 C0 0.66 0 1.32 0 2 C-1.98 2.33 -3.96 2.66 -6 3 C-6.12375 3.639375 -6.2475 4.27875 -6.375 4.9375 C-6.58125 5.618125 -6.7875 6.29875 -7 7 C-7.99 7.495 -7.99 7.495 -9 8 C-9.1875 5.125 -9.1875 5.125 -9 2 C-5.5647952 -0.29013653 -4.014669 -0.17842973 0 0 Z " fill="#8C98A3" transform="translate(148,81)"/>
<path d="M0 0 C0.66 0 1.32 0 2 0 C3.06671952 3.20015856 2.94845472 4.88544294 2.5625 8.1875 C2.46066406 9.08855469 2.35882813 9.98960938 2.25390625 10.91796875 C2.17011719 11.60503906 2.08632813 12.29210937 2 13 C1.34 13 0.68 13 0 13 C0 8.71 0 4.42 0 0 Z " fill="#526475" transform="translate(258,77)"/>
<path d="M0 0 C2.97 0 5.94 0 9 0 C8.67 0.99 8.34 1.98 8 3 C4.625 3.625 4.625 3.625 1 4 C0.34 3.34 -0.32 2.68 -1 2 C-0.67 1.34 -0.34 0.68 0 0 Z " fill="#8B97A2" transform="translate(325,87)"/>
<path d="M0 0 C2.97 0 5.94 0 9 0 C8.67 0.99 8.34 1.98 8 3 C4.625 3.625 4.625 3.625 1 4 C0.34 3.34 -0.32 2.68 -1 2 C-0.67 1.34 -0.34 0.68 0 0 Z " fill="#8B97A2" transform="translate(86,87)"/>
<path d="M0 0 C-0.66 1.32 -1.32 2.64 -2 4 C-2.598125 3.814375 -3.19625 3.62875 -3.8125 3.4375 C-6.16408762 2.77906313 -6.16408762 2.77906313 -9 4 C-8.6875 2.0625 -8.6875 2.0625 -8 0 C-4.71023192 -1.09658936 -3.28696233 -0.79953138 0 0 Z " fill="#8894A0" transform="translate(292,77)"/>
<path d="M0 0 C0 2.97 0 5.94 0 9 C-0.99 9 -1.98 9 -3 9 C-3 6.36 -3 3.72 -3 1 C-1 0 -1 0 0 0 Z " fill="#5F707F" transform="translate(21,79)"/>
<path d="M0 0 C-1 2 -1 2 -2.84765625 2.6328125 C-3.57855469 2.79523438 -4.30945313 2.95765625 -5.0625 3.125 C-5.79597656 3.29257813 -6.52945313 3.46015625 -7.28515625 3.6328125 C-7.85105469 3.75398438 -8.41695312 3.87515625 -9 4 C-9 2.68 -9 1.36 -9 0 C-5.52176885 -1.15941038 -3.54104422 -0.70820884 0 0 Z " fill="#86929E" transform="translate(230,77)"/>
<path d="M0 0 C0.763125 0.20625 1.52625 0.4125 2.3125 0.625 C2.3125 1.945 2.3125 3.265 2.3125 4.625 C-0.3275 3.635 -2.9675 2.645 -5.6875 1.625 C-2.6875 -0.375 -2.6875 -0.375 0 0 Z " fill="#85919D" transform="translate(171.6875,76.375)"/>
<path d="M0 0 C2.475 0.495 2.475 0.495 5 1 C4.51917969 1.39832031 4.03835938 1.79664062 3.54296875 2.20703125 C1.62608175 4.43450247 1.52258357 5.78834669 1.3125 8.6875 C1.24675781 9.49574219 1.18101562 10.30398437 1.11328125 11.13671875 C1.07589844 11.75160156 1.03851563 12.36648437 1 13 C0.67 13 0.34 13 0 13 C0 8.71 0 4.42 0 0 Z " fill="#8C98A3" transform="translate(260,77)"/>
<path d="M0 0 C0.99 0 1.98 0 3 0 C3.66 1.65 4.32 3.3 5 5 C3.0625 5.5625 3.0625 5.5625 1 6 C0 5 0 5 -0.0625 2.4375 C-0.041875 1.633125 -0.02125 0.82875 0 0 Z " fill="#6A7987" transform="translate(165,78)"/>
<path d="M0 0 C-0.33 0.66 -0.66 1.32 -1 2 C-6.44927536 3.27536232 -6.44927536 3.27536232 -9 2 C-6.98558063 -2.02883874 -3.72407517 -0.90585612 0 0 Z " fill="#909CA6" transform="translate(276,77)"/>
<path d="M0 0 C2.375 -0.125 2.375 -0.125 5 0 C5.66 0.66 6.32 1.32 7 2 C6.625 4.125 6.625 4.125 6 6 C5.67 5.01 5.34 4.02 5 3 C2.49552484 1.78130071 2.49552484 1.78130071 0 1 C0 0.67 0 0.34 0 0 Z " fill="#5A6B7B" transform="translate(327,77)"/>
<path d="M0 0 C2.375 -0.125 2.375 -0.125 5 0 C5.66 0.66 6.32 1.32 7 2 C6.625 4.125 6.625 4.125 6 6 C5.67 5.01 5.34 4.02 5 3 C2.49552484 1.78130071 2.49552484 1.78130071 0 1 C0 0.67 0 0.34 0 0 Z " fill="#5A6B7B" transform="translate(88,77)"/>
<path d="M0 0 C0.99 0.33 1.98 0.66 3 1 C-0.465 3.97 -0.465 3.97 -4 7 C-3.04065919 3.16263678 -2.76390737 2.40339772 0 0 Z " fill="#64A0EF" transform="translate(167,20)"/>
<path d="M0 0 C-0.33 0.66 -0.66 1.32 -1 2 C-5.47540984 3.26229508 -5.47540984 3.26229508 -8 2 C-8 1.34 -8 0.68 -8 0 C-4.71023192 -1.09658936 -3.28696233 -0.79953138 0 0 Z " fill="#8C98A3" transform="translate(291,82)"/>
<path d="M0 0 C0.99 0.33 1.98 0.66 3 1 C-0.465 3.97 -0.465 3.97 -4 7 C-2.92598892 4.08482708 -2.22189824 2.22189824 0 0 Z " fill="#629EEE" transform="translate(277,34)"/>
<path d="M0 0 C0.99 0.33 1.98 0.66 3 1 C-0.465 3.97 -0.465 3.97 -4 7 C-2.92598892 4.08482708 -2.22189824 2.22189824 0 0 Z " fill="#629EEE" transform="translate(10,34)"/>
<path d="M0 0 C0.66 0.33 1.32 0.66 2 1 C0.02 2.98 -1.96 4.96 -4 7 C-4.66 6.67 -5.32 6.34 -6 6 C-4 4 -2 2 0 0 Z " fill="#6FA7F0" transform="translate(99,19)"/>
<path d="M0 0 C0.99 0 1.98 0 3 0 C3 0.99 3 1.98 3 3 C2.01 3 1.02 3 0 3 C0 2.01 0 1.02 0 0 Z " fill="#7F8C98" transform="translate(130,72)"/>
</svg>
